# xmcd
#
# Track frame offsets:
#	150
#	15520
#	23225
#	41902
#	65350
#	77307
#	92307
#	106400
#	123080
#	137862
#	157060
#	173422
#	194727
#
# Disc length: 2620 seconds
#
# Revision: 0
# Processed by: cddbd v1.4PL0 Copyright (c) Steve Scherf et al.
# Submitted via: audiograbber 1.81.03
#
DISCID=9d0a3a0d
DTITLE=Latwerch-Band - Pfälzer Scheibe
DYEAR=1993
DGENRE=Other
TTITLE0=Die Palz, die hat Geschichte
TTITLE1=Ruh' do owwe
TTITLE2=Zufall
TTITLE3=Loss de Kopp net hänge
TTITLE4=Verwandte uff' m Land
TTITLE5=De Bauer
TTITLE6=Hochdeitsch un Pfälzisch
TTITLE7=Die Pälzer Streitfrooch
TTITLE8=De Urlaub
TTITLE9=Speyer om Rhoi
TTITLE10=An de Haardt
TTITLE11=K'Town
TTITLE12=Do kumm ich her
EXTD=
EXTT0=
EXTT1=
EXTT2=
EXTT3=
EXTT4=
EXTT5=
EXTT6=
EXTT7=
EXTT8=
EXTT9=
EXTT10=
EXTT11=
EXTT12=
PLAYORDER=
